<svg xmlns="http://www.w3.org/2000/svg" viewBox="0 0 100 27.96"><defs><style>.cls-1{fill:#adff2f;}</style></defs><title>Asset 10</title><g id="Layer_2" data-name="Layer 2"><g id="Layer_1-2" data-name="Layer 1"><path class="cls-1" d="M15.65,16.08V9.55C15.65,3.26,14.21,0,8.89,0,3.22,0,.35,3.92,1.51,8.19l1.56-.77C1.9,4.19,4.7,1.16,8.7,1.16c4.19,0,5.12,2.41,5.32,6.26-5.79,1-14,2.4-14,8,0,3.34,2.37,4.77,5.16,4.77a10,10,0,0,0,8.74-4.7h.2V17.9c0,1.13.46,1.9,1.59,1.9a2.31,2.31,0,0,0,1.9-1.16v-.39C15.92,19,15.65,18.52,15.65,16.08Zm-1.55-5v.07c0,5.28-5,7.85-8.66,7.85-2.76,0-3.89-1.44-3.89-3.65,0-4.2,6.49-6,12.55-6.84Z"/><path class="cls-1" d="M30.93,0c-4.51,0-6.6,3.49-7.38,6.45h-.19V2.06c0-1.4-.55-1.63-1.17-1.67H19.86V.78c1.71,0,1.94.73,1.94,2.91V16.5c0,2.18-.23,2.92-1.94,2.92v.38H25.3v-.38c-1.71,0-1.94-.74-1.94-2.92V12.81c0-5.32,2.56-11.65,7.37-11.65,3.07,0,3.54,2.26,2,6.26l1.55.77C36.52,2.64,34.7,0,30.93,0Z"/><path class="cls-1" d="M55.27,2.56A1.88,1.88,0,0,0,53.36,0a3.14,3.14,0,0,0-2.79,1.71A8.36,8.36,0,0,0,45.29,0c-4.47,0-7.77,2.91-7.77,7a6.63,6.63,0,0,0,2.95,5.59c-1.59,1.13-2.17,2.1-2.17,3.26,0,1.36.7,3.77,7.34,2.92,4.54-.59,6.71-.2,6.71,3.26,0,2.95-2.48,4.77-6.91,4.77s-8.31-1.28-6.75-5.94l-1.56-.77C35.58,26.25,40.24,28,45.4,28c4.59,0,8.51-1.9,8.51-6.25s-3.11-5.09-8.27-4.43c-4.82.62-5.79-.47-5.79-1.9,0-.82.31-1.4,1.52-2.25a9.1,9.1,0,0,0,3.92.85c4.46,0,7.76-2.91,7.76-7a6.79,6.79,0,0,0-1.74-4.58,2.2,2.2,0,0,1,1.74-1.25c.82,0,1.09.55.66,2.18ZM51.42,6.14a5.52,5.52,0,0,1-4.93,6.56c-4.39.62-6.91-1.67-7.34-4.86a5.53,5.53,0,0,1,5-6.56C48.47.66,51,3,51.42,6.14Z"/><path class="cls-1" d="M92.7,8.74C89.55,7.69,87,6.8,87,4.39c0-1.79,1.36-3.23,5-3.23C95.42,1.16,99,2.45,97,6.33l1.55.78C100.5,1.71,96.27,0,92.08,0c-4,0-6.6,1.51-6.6,4.62,0,2.87,2.29,4,7.18,5.71,2.8,1,5.79,1.63,5.79,4.89,0,2.37-1.71,3.81-5.36,3.81-4,0-7.92-1.28-6.37-6.33l-1.55-.78c-1.56,6.56,2.91,8.27,7.88,8.27,4,0,7-1.36,7-5.24C100,11.65,97.13,10.21,92.7,8.74Z"/><path class="cls-1" d="M82,8.59a19.65,19.65,0,0,0-3.76-4.22A16.68,16.68,0,0,0,72.1.88,10.4,10.4,0,0,0,67,.66a14.37,14.37,0,0,0-4.82,2,20.67,20.67,0,0,0-4.32,3.76,14.19,14.19,0,0,0-2.33,3.32A1.34,1.34,0,0,0,55.46,11c.18.33.33.68.53,1a19.56,19.56,0,0,0,4,4.54,17.86,17.86,0,0,0,4.39,2.79,11.66,11.66,0,0,0,4.94,1A12.31,12.31,0,0,0,74.56,19a19.94,19.94,0,0,0,5.77-4.43,13.7,13.7,0,0,0,2.23-3.11,1.83,1.83,0,0,0,.17-1.61A10.72,10.72,0,0,0,82,8.59ZM69.47,17.65a7.24,7.24,0,1,1,6.85-7.72A7.23,7.23,0,0,1,69.47,17.65Z"/><path class="cls-1" d="M68.76,13.4a3.47,3.47,0,0,1-.27,1,4,4,0,1,0-3.71-4.8,3.08,3.08,0,0,1,.91,0A3.45,3.45,0,0,1,68.76,13.4Z"/></g></g></svg>